<?xml version="1.0" encoding="UTF-8" standalone="no"?>
<svg width="940px" height="97px" viewBox="0 0 940 97" version="1.1" xmlns="http://www.w3.org/2000/svg" xmlns:xlink="http://www.w3.org/1999/xlink" xmlns:sketch="http://www.bohemiancoding.com/sketch/ns">
    <!-- Generator: Sketch Beta 3.3 (11682) - http://www.bohemiancoding.com/sketch -->
    <title>FLATBOOK</title>
    <desc>Created with Sketch Beta.</desc>
    <defs></defs>
    <g id="Homepage" stroke="none" stroke-width="1" fill="none" fill-rule="evenodd" sketch:type="MSPage">
        <g id="00-HomePage" sketch:type="MSArtboardGroup" transform="translate(-213.000000, -273.000000)" fill="#348AF8">
            <g id="Hero-Page" sketch:type="MSLayerGroup">
                <g id="Group" transform="translate(182.000000, 273.000000)" sketch:type="MSShapeGroup">
                    <path d="M59.4518477,26.6057143 L105.772006,26.6057143 L105.772006,2.07857143 L31,2.07857143 L31,94.9214286 L59.4518477,94.9214286 L59.4518477,65.96 L100.411513,65.96 L100.411513,41.4328571 L59.4518477,41.4328571 L59.4518477,26.6057143 Z M211.92004,70.5328571 L169.723339,70.5328571 L169.723339,2.07857143 L141.271491,2.07857143 L141.271491,94.9214286 L211.92004,94.9214286 L211.92004,70.5328571 Z M347.619511,94.9214286 L311.195648,2.07857143 L279.170138,2.07857143 L242.746275,94.9214286 L273.122402,94.9214286 L277.520756,82.3114286 L312.84503,82.3114286 L317.243384,94.9214286 L347.619511,94.9214286 Z M304.460669,58.6157143 L285.905117,58.6157143 L295.251617,32.1485714 L304.460669,58.6157143 Z M451.568369,26.3285714 L451.568369,2.07857143 L366.212826,2.07857143 L366.212826,26.3285714 L394.664674,26.3285714 L394.664674,94.9214286 L423.116521,94.9214286 L423.116521,26.3285714 L451.568369,26.3285714 Z M549.881837,46.9757143 C557.166609,46.8371429 567.47525,41.0171429 567.47525,26.7442857 C567.47525,11.9171429 555.929573,2.07857143 538.611057,2.07857143 L487.4802,2.07857143 L487.4802,94.9214286 L538.748505,94.9214286 C557.991301,94.9214286 570.224221,84.39 570.224221,68.5928571 C570.224221,53.0728571 559.91558,47.6685714 549.881837,47.53 L549.881837,46.9757143 Z M515.932048,23.9728571 L530.639041,23.9728571 C535.999534,23.9728571 539.710645,26.8828571 539.710645,31.7328571 C539.710645,36.4442857 535.999534,39.77 530.501593,39.77 L515.932048,39.77 L515.932048,23.9728571 Z M515.932048,73.0271429 L515.932048,56.5371429 L531.876078,56.5371429 C537.511468,56.5371429 541.08513,59.5857143 541.08513,64.2971429 C541.08513,69.7014286 537.511468,73.0271429 531.876078,73.0271429 L515.932048,73.0271429 Z M654.792835,0 C626.753332,0 604.899015,21.34 604.899015,48.5 C604.899015,75.66 626.753332,97 654.792835,97 C682.694888,97 704.686655,75.66 704.686655,48.5 C704.686655,21.34 682.694888,0 654.792835,0 L654.792835,0 Z M654.792835,71.3642857 C642.285018,71.3642857 633.350862,61.5257143 633.350862,48.5 C633.350862,35.4742857 642.285018,25.6357143 654.792835,25.6357143 C667.300652,25.6357143 676.097358,35.4742857 676.097358,48.5 C676.097358,61.5257143 667.300652,71.3642857 654.792835,71.3642857 L654.792835,71.3642857 Z M789.667614,0 C761.628112,0 739.773794,21.34 739.773794,48.5 C739.773794,75.66 761.628112,97 789.667614,97 C817.569668,97 839.561434,75.66 839.561434,48.5 C839.561434,21.34 817.569668,0 789.667614,0 L789.667614,0 Z M789.667614,71.3642857 C777.159797,71.3642857 768.225642,61.5257143 768.225642,48.5 C768.225642,35.4742857 777.159797,25.6357143 789.667614,25.6357143 C802.175431,25.6357143 810.972138,35.4742857 810.972138,48.5 C810.972138,61.5257143 802.175431,71.3642857 789.667614,71.3642857 L789.667614,71.3642857 Z M971,94.9214286 L935.400828,42.1257143 L967.976132,2.07857143 L935.813174,2.07857143 L904.887252,39.0771429 L904.887252,2.07857143 L876.435405,2.07857143 L876.435405,94.9214286 L904.887252,94.9214286 L904.887252,79.6785714 L916.982724,64.7128571 L936.912762,94.9214286 L971,94.9214286 Z" id="FLATBOOK"></path>
                </g>
            </g>
        </g>
    </g>
</svg>